<svg id="visual" viewBox="0 0 1536 960" width="1536" height="960" xmlns="http://www.w3.org/2000/svg" xmlns:xlink="http://www.w3.org/1999/xlink" version="1.1"><path d="M0 796L28.5 758.8C57 721.7 114 647.3 170.8 601C227.7 554.7 284.3 536.3 341.2 547.5C398 558.7 455 599.3 512 632C569 664.7 626 689.3 682.8 719.7C739.7 750 796.3 786 853.2 794C910 802 967 782 1024 754C1081 726 1138 690 1194.8 691.2C1251.7 692.3 1308.3 730.7 1365.2 702.7C1422 674.7 1479 580.3 1507.5 533.2L1536 486L1536 961L1507.5 961C1479 961 1422 961 1365.2 961C1308.3 961 1251.7 961 1194.8 961C1138 961 1081 961 1024 961C967 961 910 961 853.2 961C796.3 961 739.7 961 682.8 961C626 961 569 961 512 961C455 961 398 961 341.2 961C284.3 961 227.7 961 170.8 961C114 961 57 961 28.5 961L0 961Z" fill="#1abdff" stroke-linecap="round" stroke-linejoin="miter"></path></svg>