<svg id="visual" viewBox="0 0 1536 960" width="1536" height="960" xmlns="http://www.w3.org/2000/svg" xmlns:xlink="http://www.w3.org/1999/xlink" version="1.1"><path d="M0 583L28.5 611.2C57 639.3 114 695.7 170.8 711.8C227.7 728 284.3 704 341.2 674.3C398 644.7 455 609.3 512 589.3C569 569.3 626 564.7 682.8 598.3C739.7 632 796.3 704 853.2 726C910 748 967 720 1024 736C1081 752 1138 812 1194.8 813.8C1251.7 815.7 1308.3 759.3 1365.2 753.8C1422 748.3 1479 793.7 1507.5 816.3L1536 839L1536 961L1507.5 961C1479 961 1422 961 1365.2 961C1308.3 961 1251.7 961 1194.8 961C1138 961 1081 961 1024 961C967 961 910 961 853.2 961C796.3 961 739.7 961 682.8 961C626 961 569 961 512 961C455 961 398 961 341.2 961C284.3 961 227.7 961 170.8 961C114 961 57 961 28.5 961L0 961Z" fill="#111e4d" stroke-linecap="round" stroke-linejoin="miter"></path></svg>